<?xml version="1.0" encoding="iso-8859-1"?>
<!-- Generator: Adobe Illustrator 19.0.0, SVG Export Plug-In . SVG Version: 6.00 Build 0)  -->
<svg version="1.1" id="Capa_1" xmlns="http://www.w3.org/2000/svg" xmlns:xlink="http://www.w3.org/1999/xlink" x="0px" y="0px"
	 viewBox="0 0 512 512" style="enable-background:new 0 0 512 512;" xml:space="preserve">
<path style="fill:#2F4552;" d="M480.876,102.744v368.758c0,22.331-18.166,40.497-40.497,40.497H71.621
	c-22.331,0-40.497-18.166-40.497-40.497V102.744c0-22.321,18.166-40.487,40.497-40.487h80.62c8.162,0,14.769,6.607,14.769,14.769
	v38.351l46.562-23.276c6.528-3.269,14.464-1.27,18.678,4.697c3.072,4.352,8.064,6.961,13.371,6.961h20.756
	c5.307,0,10.299-2.609,13.371-6.961c4.214-5.967,12.15-7.966,18.678-4.697l46.562,23.276V77.026c0-8.162,6.607-14.769,14.769-14.769
	h80.62C462.71,62.257,480.876,80.423,480.876,102.744z"/>
<path style="fill:#21323A;" d="M440.379,62.257h-80.62c-8.162,0-14.769,6.607-14.769,14.769v38.351l-46.562-23.276
	c-6.528-3.269-14.464-1.27-18.678,4.697c-3.072,4.352-8.064,6.961-13.371,6.961H256V512h184.379
	c22.331,0,40.497-18.166,40.497-40.497V102.744C480.876,80.423,462.71,62.257,440.379,62.257z"/>
<path style="fill:#EDEEF0;" d="M405.75,69.219c-2.696-4.332-7.437-6.966-12.539-6.966h-33.456c-8.157,0-14.769,6.613-14.769,14.769
	v38.357l-46.557-23.278c-6.531-3.266-14.467-1.268-18.675,4.698c-3.072,4.356-8.073,6.957-13.378,6.957h-20.752
	c-5.305,0-10.306-2.601-13.378-6.957c-4.208-5.966-12.144-7.963-18.675-4.698l-46.557,23.278V77.022
	c0-8.157-6.613-14.769-14.769-14.769h-33.456c-5.103,0-9.843,2.634-12.539,6.966c-2.696,4.332-2.965,9.749-0.712,14.326
	l137.21,278.71c2.485,5.048,7.624,8.246,13.251,8.246c5.627,0,10.766-3.198,13.251-8.246l137.212-278.71
	C408.715,78.968,408.446,73.552,405.75,69.219z"/>
<path style="fill:#D8D9DD;" d="M393.211,62.253h-33.456c-8.157,0-14.769,6.613-14.769,14.769v38.357l-46.557-23.278
	c-6.531-3.266-14.467-1.268-18.675,4.698c-3.072,4.356-8.073,6.957-13.378,6.957H256v266.746c5.627,0,10.766-3.198,13.251-8.246
	l137.211-278.71c2.253-4.577,1.985-9.994-0.712-14.326C403.053,64.887,398.313,62.253,393.211,62.253z"/>
<path style="fill:#C4C8F6;" d="M425.047,234.085l-17.152-158.65c-0.707-6.538-5.652-11.821-12.129-12.96
	c-6.471-1.137-12.926,2.144-15.818,8.05l-94.461,192.86c-0.001,0.002-0.002,0.004-0.003,0.006L256,322.598l-29.482-59.207
	c-0.001-0.002-0.002-0.004-0.003-0.006l-94.462-192.86c-2.893-5.907-9.346-9.187-15.818-8.05
	c-6.477,1.138-11.423,6.421-12.128,12.96l-17.152,158.65c-0.76,7.038,3.579,13.626,10.346,15.706l92.23,28.333l-48.526,69.122
	c-3.167,4.511-3.558,10.408-1.017,15.298c2.541,4.89,7.594,7.958,13.105,7.958h88.138V512h29.538V370.502h88.14
	c5.511,0,10.564-3.068,13.105-7.958c2.541-4.89,2.149-10.787-1.017-15.298l-48.526-69.122l92.23-28.333
	C421.467,247.711,425.807,241.123,425.047,234.085z"/>
<path style="fill:#9DA4D6;" d="M270.769,512V370.502h88.14c5.511,0,10.564-3.068,13.105-7.958c2.541-4.89,2.149-10.787-1.017-15.298
	l-48.526-69.122l92.23-28.333c6.767-2.079,11.106-8.667,10.346-15.706l-17.152-158.65c-0.707-6.538-5.652-11.821-12.128-12.96
	c-6.471-1.137-12.926,2.144-15.818,8.05l-94.461,192.86c-0.001,0.002-0.002,0.004-0.003,0.006L256,322.598V512H270.769z"/>
<path style="fill:#2F4552;" d="M241.516,170.269c0.098,0.473,0.217,0.945,0.353,1.398c0.148,0.463,0.306,0.926,0.492,1.369
	c0.187,0.443,0.394,0.876,0.621,1.3c0.225,0.433,0.472,0.847,0.738,1.25c0.266,0.394,0.551,0.788,0.856,1.162
	c0.306,0.374,0.64,0.738,0.975,1.083c0.346,0.335,0.709,0.67,1.084,0.975c0.374,0.305,0.767,0.591,1.162,0.857
	c0.404,0.266,0.817,0.512,1.25,0.738c0.424,0.226,0.857,0.433,1.3,0.62c0.443,0.187,0.906,0.354,1.369,0.492
	c0.453,0.138,0.926,0.256,1.398,0.354c0.473,0.089,0.956,0.167,1.428,0.217c0.482,0.049,0.975,0.069,1.457,0.069
	c0.482,0,0.964-0.02,1.447-0.069c0.482-0.049,0.965-0.128,1.438-0.217c0.473-0.098,0.945-0.217,1.398-0.354
	c0.463-0.138,0.926-0.305,1.37-0.492c0.442-0.187,0.876-0.394,1.299-0.62c0.424-0.226,0.847-0.473,1.251-0.738
	c0.393-0.266,0.788-0.551,1.162-0.857c0.374-0.305,0.738-0.64,1.083-0.975c0.336-0.345,0.661-0.709,0.975-1.083
	c0.295-0.374,0.592-0.768,0.857-1.162c0.267-0.404,0.513-0.817,0.738-1.25c0.226-0.423,0.433-0.857,0.62-1.3
	c0.187-0.443,0.346-0.906,0.492-1.369c0.139-0.453,0.256-0.926,0.354-1.398c0.089-0.473,0.167-0.955,0.217-1.428
	c0.049-0.482,0.069-0.975,0.069-1.457c0-0.482-0.021-0.975-0.069-1.457c-0.049-0.473-0.128-0.955-0.217-1.428
	c-0.099-0.473-0.217-0.945-0.354-1.408c-0.147-0.453-0.305-0.916-0.492-1.359c-0.186-0.443-0.393-0.876-0.62-1.3
	c-0.225-0.433-0.472-0.847-0.738-1.25c-0.266-0.394-0.561-0.788-0.857-1.162c-0.314-0.374-0.639-0.738-0.975-1.083
	c-0.345-0.335-0.709-0.67-1.083-0.975c-0.374-0.305-0.768-0.591-1.162-0.857c-0.404-0.266-0.827-0.512-1.251-0.738
	c-0.423-0.226-0.857-0.433-1.299-0.62c-0.443-0.187-0.907-0.345-1.37-0.492c-0.453-0.138-0.925-0.256-1.398-0.354
	c-0.472-0.089-0.955-0.167-1.438-0.207c-0.955-0.098-1.94-0.098-2.905,0c-0.472,0.039-0.955,0.118-1.428,0.207
	c-0.472,0.098-0.945,0.217-1.398,0.354c-0.463,0.148-0.925,0.305-1.369,0.492c-0.444,0.187-0.876,0.394-1.3,0.62
	c-0.432,0.226-0.846,0.473-1.25,0.738c-0.394,0.266-0.788,0.551-1.162,0.857c-0.375,0.305-0.738,0.64-1.084,0.975
	c-0.335,0.345-0.67,0.709-0.975,1.083c-0.305,0.374-0.591,0.768-0.856,1.162c-0.267,0.404-0.513,0.817-0.738,1.25
	c-0.226,0.423-0.433,0.857-0.621,1.3c-0.186,0.443-0.345,0.906-0.492,1.359c-0.138,0.463-0.256,0.935-0.353,1.408
	c-0.089,0.473-0.167,0.955-0.218,1.428c-0.038,0.482-0.068,0.975-0.068,1.457s0.03,0.975,0.068,1.457
	C241.349,169.314,241.428,169.797,241.516,170.269z"/>
<path style="fill:#21323A;" d="M270.484,164.5c-0.099-0.473-0.217-0.945-0.354-1.408c-0.147-0.453-0.305-0.916-0.492-1.359
	c-0.186-0.443-0.393-0.876-0.62-1.3c-0.225-0.433-0.472-0.847-0.738-1.25c-0.266-0.394-0.561-0.788-0.857-1.162
	c-0.314-0.374-0.639-0.738-0.975-1.083c-0.345-0.335-0.709-0.67-1.083-0.975c-0.374-0.305-0.768-0.591-1.162-0.857
	c-0.404-0.266-0.827-0.512-1.251-0.738c-0.423-0.226-0.857-0.433-1.299-0.62c-0.443-0.187-0.907-0.345-1.37-0.492
	c-0.453-0.138-0.925-0.256-1.398-0.354c-0.472-0.089-0.955-0.167-1.438-0.207c-0.477-0.049-0.961-0.074-1.447-0.074v29.534
	c0.482,0,0.964-0.02,1.447-0.069c0.482-0.049,0.965-0.128,1.438-0.217c0.473-0.098,0.945-0.217,1.398-0.354
	c0.463-0.138,0.926-0.305,1.37-0.492c0.442-0.187,0.876-0.394,1.299-0.62c0.424-0.226,0.847-0.473,1.251-0.738
	c0.393-0.266,0.788-0.551,1.162-0.857c0.374-0.305,0.738-0.64,1.083-0.975c0.336-0.345,0.661-0.709,0.975-1.083
	c0.295-0.374,0.592-0.768,0.857-1.162c0.267-0.404,0.513-0.817,0.738-1.25c0.226-0.423,0.433-0.857,0.62-1.3
	c0.187-0.443,0.346-0.906,0.492-1.369c0.139-0.453,0.256-0.926,0.354-1.398c0.089-0.473,0.167-0.955,0.217-1.428
	c0.049-0.482,0.069-0.975,0.069-1.457c0-0.482-0.021-0.975-0.069-1.457C270.651,165.455,270.572,164.972,270.484,164.5z"/>
<path style="fill:#2F4552;" d="M270.484,213.73c-0.099-0.473-0.217-0.945-0.354-1.408c-0.147-0.453-0.305-0.916-0.492-1.359
	c-0.186-0.443-0.393-0.876-0.62-1.3c-0.225-0.433-0.472-0.847-0.738-1.25c-0.266-0.394-0.561-0.788-0.857-1.162
	c-0.314-0.374-0.639-0.738-0.975-1.083c-0.345-0.335-0.709-0.67-1.083-0.975c-0.374-0.305-0.768-0.591-1.162-0.857
	c-0.404-0.266-0.827-0.512-1.251-0.738c-0.423-0.226-0.857-0.433-1.299-0.62c-0.443-0.187-0.907-0.345-1.37-0.492
	c-0.453-0.138-0.925-0.256-1.398-0.354c-0.472-0.089-0.955-0.167-1.438-0.217c-0.955-0.089-1.94-0.089-2.905,0
	c-0.472,0.049-0.955,0.128-1.428,0.217c-0.472,0.098-0.945,0.217-1.398,0.354c-0.463,0.148-0.925,0.305-1.369,0.492
	c-0.444,0.187-0.876,0.394-1.3,0.62c-0.432,0.226-0.846,0.473-1.25,0.738c-0.394,0.266-0.788,0.551-1.162,0.857
	c-0.375,0.305-0.738,0.64-1.084,0.975c-0.335,0.345-0.67,0.709-0.975,1.083s-0.591,0.768-0.856,1.162
	c-0.267,0.404-0.513,0.817-0.738,1.25c-0.226,0.423-0.433,0.857-0.621,1.3c-0.186,0.443-0.345,0.906-0.492,1.359
	c-0.138,0.463-0.256,0.935-0.353,1.408c-0.089,0.473-0.167,0.955-0.218,1.428c-0.037,0.482-0.067,0.975-0.067,1.457
	s0.03,0.975,0.068,1.457c0.05,0.473,0.129,0.955,0.218,1.428c0.098,0.473,0.217,0.945,0.353,1.408
	c0.148,0.453,0.306,0.916,0.492,1.359c0.187,0.443,0.394,0.876,0.621,1.3c0.225,0.433,0.472,0.847,0.738,1.25
	c0.266,0.394,0.551,0.788,0.856,1.162c0.306,0.374,0.64,0.738,0.975,1.083c0.346,0.335,0.709,0.67,1.084,0.975
	c0.374,0.305,0.767,0.591,1.162,0.857c0.404,0.266,0.817,0.512,1.25,0.738c0.424,0.226,0.857,0.433,1.3,0.62
	c0.443,0.187,0.906,0.345,1.369,0.492c0.453,0.138,0.926,0.256,1.398,0.354c0.473,0.089,0.956,0.167,1.428,0.217
	c0.482,0.039,0.975,0.069,1.457,0.069c0.482,0,0.964-0.03,1.447-0.069c0.482-0.049,0.965-0.128,1.438-0.217
	c0.473-0.098,0.945-0.217,1.398-0.354c0.463-0.148,0.926-0.305,1.37-0.492c0.442-0.187,0.876-0.394,1.299-0.62
	c0.424-0.226,0.847-0.473,1.251-0.738c0.393-0.266,0.788-0.551,1.162-0.857c0.374-0.305,0.738-0.64,1.083-0.975
	c0.336-0.345,0.661-0.709,0.975-1.083c0.295-0.374,0.592-0.768,0.857-1.162c0.267-0.404,0.513-0.817,0.738-1.25
	c0.226-0.423,0.433-0.857,0.62-1.3s0.346-0.906,0.492-1.359c0.139-0.463,0.256-0.935,0.354-1.408
	c0.089-0.473,0.167-0.955,0.217-1.428c0.049-0.482,0.069-0.975,0.069-1.457c0-0.482-0.021-0.975-0.069-1.457
	C270.651,214.685,270.572,214.203,270.484,213.73z"/>
<path style="fill:#E9336D;" d="M232.245,57.246c2.481-3.517,3.303-7.941,2.254-12.116c-1.05-4.174-3.869-7.682-7.718-9.607
	L158.85,1.559c-4.58-2.29-10.017-2.044-14.369,0.647c-4.355,2.691-7.005,7.445-7.005,12.564v124.507
	c0,5.119,2.65,9.873,7.005,12.564c2.372,1.466,5.065,2.206,7.766,2.206c2.257,0,4.519-0.517,6.604-1.559l67.931-33.965
	c3.85-1.925,6.668-5.433,7.718-9.607c1.05-4.174,0.226-8.598-2.254-12.116c-1.949-2.763-2.977-6.013-2.977-9.4V66.647
	C229.268,63.259,230.298,60.009,232.245,57.246z"/>
<path style="fill:#C61A60;" d="M367.519,2.206c-4.355-2.69-9.789-2.935-14.369-0.647l-67.931,33.965
	c-3.85,1.925-6.668,5.433-7.718,9.607c-1.05,4.174-0.226,8.598,2.254,12.116c1.949,2.763,2.977,6.013,2.977,9.4v20.752
	c0,3.387-1.03,6.637-2.977,9.4c-2.481,3.517-3.303,7.941-2.254,12.116c1.05,4.174,3.869,7.682,7.718,9.607l67.931,33.965
	c2.084,1.043,4.347,1.559,6.604,1.559c2.701,0,5.395-0.739,7.766-2.206c4.355-2.691,7.005-7.445,7.005-12.564V14.769
	C374.524,9.651,371.874,4.896,367.519,2.206z"/>
<path style="fill:#FEDA40;" d="M266.376,20.752h-20.752c-25.307,0-45.895,20.588-45.895,45.896v20.752
	c0,25.307,20.588,45.896,45.895,45.896h20.752c25.307,0,45.895-20.589,45.895-45.896V66.647
	C312.271,41.34,291.682,20.752,266.376,20.752z"/>
<path style="fill:#E5C129;" d="M266.376,20.752H256v112.543h10.376c25.307,0,45.895-20.589,45.895-45.896V66.647
	C312.271,41.34,291.682,20.752,266.376,20.752z"/>
<path style="fill:#21323A;" d="M270.484,213.729c-0.099-0.473-0.217-0.945-0.354-1.408c-0.147-0.453-0.305-0.916-0.492-1.359
	c-0.186-0.443-0.393-0.876-0.62-1.3c-0.225-0.433-0.472-0.847-0.738-1.25c-0.266-0.394-0.561-0.788-0.857-1.162
	c-0.314-0.374-0.639-0.738-0.975-1.083c-0.345-0.335-0.709-0.67-1.083-0.975c-0.374-0.305-0.768-0.591-1.162-0.857
	c-0.404-0.266-0.827-0.512-1.251-0.738c-0.423-0.226-0.857-0.433-1.299-0.62c-0.443-0.187-0.907-0.345-1.37-0.492
	c-0.453-0.138-0.925-0.256-1.398-0.354c-0.472-0.089-0.955-0.167-1.438-0.207c-0.477-0.049-0.961-0.074-1.447-0.074v29.534
	c0.482,0,0.964-0.02,1.447-0.069c0.482-0.049,0.965-0.128,1.438-0.217c0.473-0.098,0.945-0.217,1.398-0.354
	c0.463-0.138,0.926-0.305,1.37-0.492c0.442-0.187,0.876-0.394,1.299-0.62c0.424-0.226,0.847-0.473,1.251-0.738
	c0.393-0.266,0.788-0.551,1.162-0.857c0.374-0.305,0.738-0.64,1.083-0.975c0.336-0.345,0.661-0.709,0.975-1.083
	c0.295-0.374,0.592-0.768,0.857-1.162c0.267-0.404,0.513-0.817,0.738-1.25c0.226-0.423,0.433-0.857,0.62-1.3
	c0.187-0.443,0.346-0.906,0.492-1.369c0.139-0.453,0.256-0.926,0.354-1.398c0.089-0.473,0.167-0.955,0.217-1.428
	c0.049-0.482,0.069-0.975,0.069-1.457c0-0.482-0.021-0.975-0.069-1.457C270.651,214.684,270.572,214.202,270.484,213.729z"/>
<g>
</g>
<g>
</g>
<g>
</g>
<g>
</g>
<g>
</g>
<g>
</g>
<g>
</g>
<g>
</g>
<g>
</g>
<g>
</g>
<g>
</g>
<g>
</g>
<g>
</g>
<g>
</g>
<g>
</g>
</svg>
