<svg xmlns="http://www.w3.org/2000/svg" viewBox="0 0 512 512"><path d="M480.876 102.744v368.758c0 22.331-18.166 40.497-40.497 40.497H71.621c-22.331 0-40.497-18.166-40.497-40.497V102.744c0-22.321 18.166-40.487 40.497-40.487h80.62c8.162 0 14.769 6.607 14.769 14.769v38.351l46.562-23.276c6.528-3.269 14.464-1.27 18.678 4.697 3.072 4.352 8.064 6.961 13.371 6.961h20.756c5.307 0 10.299-2.609 13.371-6.961 4.214-5.967 12.15-7.966 18.678-4.697l46.562 23.276V77.026c0-8.162 6.607-14.769 14.769-14.769h80.62c22.333 0 40.499 18.166 40.499 40.487z" fill="#2f4552"/><path d="M440.379 62.257h-80.62c-8.162 0-14.769 6.607-14.769 14.769v38.351l-46.562-23.276c-6.528-3.269-14.464-1.27-18.678 4.697-3.072 4.352-8.064 6.961-13.371 6.961H256V512h184.379c22.331 0 40.497-18.166 40.497-40.497V102.744c0-22.321-18.166-40.487-40.497-40.487z" fill="#21323a"/><path d="M405.75 69.219a14.77 14.77 0 0 0-12.539-6.966h-33.456c-8.157 0-14.769 6.613-14.769 14.769v38.357l-46.557-23.278a14.77 14.77 0 0 0-18.675 4.698c-3.072 4.356-8.073 6.957-13.378 6.957h-20.752c-5.305 0-10.306-2.601-13.378-6.957a14.77 14.77 0 0 0-18.675-4.698l-46.557 23.278V77.022c0-8.157-6.613-14.769-14.769-14.769h-33.456a14.768 14.768 0 0 0-13.251 21.292l137.21 278.71a14.77 14.77 0 0 0 26.502 0l137.212-278.71a14.77 14.77 0 0 0-.712-14.326z" fill="#edeef0"/><path d="M393.211 62.253h-33.456c-8.157 0-14.769 6.613-14.769 14.769v38.357l-46.557-23.278a14.77 14.77 0 0 0-18.675 4.698c-3.072 4.356-8.073 6.957-13.378 6.957H256v266.746a14.77 14.77 0 0 0 13.251-8.246l137.211-278.71a14.77 14.77 0 0 0-13.251-21.293z" fill="#d8d9dd"/><path d="M425.047 234.085l-17.152-158.65a14.772 14.772 0 0 0-12.129-12.96 14.773 14.773 0 0 0-15.818 8.05l-94.461 192.86-.003.006L256 322.598l-29.482-59.207-.003-.006-94.462-192.86a14.767 14.767 0 1 0-27.946 4.91l-17.152 158.65a14.771 14.771 0 0 0 10.346 15.706l92.23 28.333-48.526 69.122a14.77 14.77 0 0 0 12.088 23.256h88.138V512h29.538V370.502h88.14a14.768 14.768 0 0 0 12.088-23.256l-48.526-69.122 92.23-28.333a14.773 14.773 0 0 0 10.346-15.706z" fill="#c4c8f6"/><path d="M270.769 512V370.502h88.14a14.768 14.768 0 0 0 12.088-23.256l-48.526-69.122 92.23-28.333a14.77 14.77 0 0 0 10.346-15.706l-17.152-158.65a14.773 14.773 0 0 0-12.128-12.96 14.773 14.773 0 0 0-15.818 8.05l-94.461 192.86-.003.006L256 322.598V512h14.769z" fill="#9da4d6"/><path d="M241.516 170.269c.098.473.217.945.353 1.398.148.463.306.926.492 1.369.187.443.394.876.621 1.3.225.433.472.847.738 1.25.266.394.551.788.856 1.162.306.374.64.738.975 1.083a17 17 0 0 0 1.084.975 14.289 14.289 0 0 0 2.412 1.595c.424.226.857.433 1.3.62.443.187.906.354 1.369.492.453.138.926.256 1.398.354.473.089.956.167 1.428.217.482.049.975.069 1.457.069.482 0 .964-.02 1.447-.069.482-.049.965-.128 1.438-.217.473-.098.945-.217 1.398-.354.463-.138.926-.305 1.37-.492.442-.187.876-.394 1.299-.62a16.08 16.08 0 0 0 1.251-.738c.393-.266.788-.551 1.162-.857.374-.305.738-.64 1.083-.975.336-.345.661-.709.975-1.083.295-.374.592-.768.857-1.162.267-.404.513-.817.738-1.25.226-.423.433-.857.62-1.3.187-.443.346-.906.492-1.369.139-.453.256-.926.354-1.398.089-.473.167-.955.217-1.428.049-.482.069-.975.069-1.457a14.8 14.8 0 0 0-.069-1.457 17.592 17.592 0 0 0-.217-1.428 17.889 17.889 0 0 0-.354-1.408 16.985 16.985 0 0 0-.492-1.359 15.311 15.311 0 0 0-.62-1.3 13.902 13.902 0 0 0-.738-1.25 19.301 19.301 0 0 0-.857-1.162 19.804 19.804 0 0 0-.975-1.083c-.345-.335-.709-.67-1.083-.975a16.072 16.072 0 0 0-1.162-.857 15.77 15.77 0 0 0-1.251-.738 15.928 15.928 0 0 0-1.299-.62 15.914 15.914 0 0 0-1.37-.492 15.877 15.877 0 0 0-1.398-.354 14.062 14.062 0 0 0-1.438-.207 14.389 14.389 0 0 0-2.905 0c-.472.039-.955.118-1.428.207a16.33 16.33 0 0 0-1.398.354c-.463.148-.925.305-1.369.492-.444.187-.876.394-1.3.62-.432.226-.846.473-1.25.738-.394.266-.788.551-1.162.857a17 17 0 0 0-1.084.975c-.335.345-.67.709-.975 1.083-.305.374-.591.768-.856 1.162-.267.404-.513.817-.738 1.25-.226.423-.433.857-.621 1.3-.186.443-.345.906-.492 1.359-.138.463-.256.935-.353 1.408-.089.473-.167.955-.218 1.428-.038.482-.068.975-.068 1.457s.03.975.068 1.457c.052.473.131.956.219 1.428z" fill="#2f4552"/><path d="M270.484 164.5a17.889 17.889 0 0 0-.354-1.408 16.985 16.985 0 0 0-.492-1.359 15.311 15.311 0 0 0-.62-1.3 13.902 13.902 0 0 0-.738-1.25 19.301 19.301 0 0 0-.857-1.162 19.804 19.804 0 0 0-.975-1.083c-.345-.335-.709-.67-1.083-.975a16.072 16.072 0 0 0-1.162-.857 15.77 15.77 0 0 0-1.251-.738 15.928 15.928 0 0 0-1.299-.62 15.914 15.914 0 0 0-1.37-.492 15.877 15.877 0 0 0-1.398-.354 14.062 14.062 0 0 0-1.438-.207 14.176 14.176 0 0 0-1.447-.074v29.534c.482 0 .964-.02 1.447-.069.482-.049.965-.128 1.438-.217.473-.098.945-.217 1.398-.354.463-.138.926-.305 1.37-.492.442-.187.876-.394 1.299-.62a16.08 16.08 0 0 0 1.251-.738c.393-.266.788-.551 1.162-.857.374-.305.738-.64 1.083-.975.336-.345.661-.709.975-1.083.295-.374.592-.768.857-1.162.267-.404.513-.817.738-1.25.226-.423.433-.857.62-1.3.187-.443.346-.906.492-1.369.139-.453.256-.926.354-1.398.089-.473.167-.955.217-1.428.049-.482.069-.975.069-1.457a14.8 14.8 0 0 0-.069-1.457c-.05-.474-.129-.957-.217-1.429z" fill="#21323a"/><path d="M270.484 213.73a17.889 17.889 0 0 0-.354-1.408 16.985 16.985 0 0 0-.492-1.359 15.311 15.311 0 0 0-.62-1.3 13.902 13.902 0 0 0-.738-1.25 19.301 19.301 0 0 0-.857-1.162 19.804 19.804 0 0 0-.975-1.083c-.345-.335-.709-.67-1.083-.975a16.072 16.072 0 0 0-1.162-.857 15.77 15.77 0 0 0-1.251-.738 15.928 15.928 0 0 0-1.299-.62 15.914 15.914 0 0 0-1.37-.492 15.877 15.877 0 0 0-1.398-.354 17.542 17.542 0 0 0-1.438-.217 15.837 15.837 0 0 0-2.905 0 17.66 17.66 0 0 0-1.428.217 16.33 16.33 0 0 0-1.398.354c-.463.148-.925.305-1.369.492-.444.187-.876.394-1.3.62-.432.226-.846.473-1.25.738-.394.266-.788.551-1.162.857a17 17 0 0 0-1.084.975c-.335.345-.67.709-.975 1.083s-.591.768-.856 1.162c-.267.404-.513.817-.738 1.25-.226.423-.433.857-.621 1.3-.186.443-.345.906-.492 1.359-.138.463-.256.935-.353 1.408-.089.473-.167.955-.218 1.428-.037.482-.067.975-.067 1.457s.03.975.068 1.457c.05.473.129.955.218 1.428.098.473.217.945.353 1.408.148.453.306.916.492 1.359.187.443.394.876.621 1.3.225.433.472.847.738 1.25.266.394.551.788.856 1.162.306.374.64.738.975 1.083a17 17 0 0 0 1.084.975 14.289 14.289 0 0 0 2.412 1.595c.424.226.857.433 1.3.62.443.187.906.345 1.369.492.453.138.926.256 1.398.354.473.089.956.167 1.428.217.482.039.975.069 1.457.069.482 0 .964-.03 1.447-.069.482-.049.965-.128 1.438-.217.473-.098.945-.217 1.398-.354.463-.148.926-.305 1.37-.492.442-.187.876-.394 1.299-.62a16.08 16.08 0 0 0 1.251-.738c.393-.266.788-.551 1.162-.857.374-.305.738-.64 1.083-.975.336-.345.661-.709.975-1.083.295-.374.592-.768.857-1.162.267-.404.513-.817.738-1.25.226-.423.433-.857.62-1.3s.346-.906.492-1.359c.139-.463.256-.935.354-1.408.089-.473.167-.955.217-1.428.049-.482.069-.975.069-1.457a14.8 14.8 0 0 0-.069-1.457c-.05-.473-.129-.955-.217-1.428z" fill="#2f4552"/><path d="M232.245 57.246a14.772 14.772 0 0 0-5.464-21.723L158.85 1.559a14.768 14.768 0 0 0-21.374 13.211v124.507a14.768 14.768 0 0 0 21.375 13.211l67.931-33.965a14.768 14.768 0 0 0 5.464-21.723 16.22 16.22 0 0 1-2.977-9.4V66.647a16.227 16.227 0 0 1 2.976-9.401z" fill="#e9336d"/><path d="M367.519 2.206a14.774 14.774 0 0 0-14.369-.647l-67.931 33.965a14.768 14.768 0 0 0-5.464 21.723 16.22 16.22 0 0 1 2.977 9.4v20.752c0 3.387-1.03 6.637-2.977 9.4a14.772 14.772 0 0 0 5.464 21.723l67.931 33.965a14.747 14.747 0 0 0 6.604 1.559 14.768 14.768 0 0 0 14.771-14.77V14.769a14.77 14.77 0 0 0-7.006-12.563z" fill="#c61a60"/><path d="M266.376 20.752h-20.752c-25.307 0-45.895 20.588-45.895 45.896V87.4c0 25.307 20.588 45.896 45.895 45.896h20.752c25.307 0 45.895-20.589 45.895-45.896V66.647c0-25.307-20.589-45.895-45.895-45.895z" fill="#feda40"/><path d="M266.376 20.752H256v112.543h10.376c25.307 0 45.895-20.589 45.895-45.896V66.647c0-25.307-20.589-45.895-45.895-45.895z" fill="#e5c129"/><path d="M270.484 213.729a17.889 17.889 0 0 0-.354-1.408 16.985 16.985 0 0 0-.492-1.359 15.311 15.311 0 0 0-.62-1.3 13.902 13.902 0 0 0-.738-1.25 19.301 19.301 0 0 0-.857-1.162 19.804 19.804 0 0 0-.975-1.083c-.345-.335-.709-.67-1.083-.975a16.072 16.072 0 0 0-1.162-.857 15.77 15.77 0 0 0-1.251-.738 15.928 15.928 0 0 0-1.299-.62 15.914 15.914 0 0 0-1.37-.492 15.877 15.877 0 0 0-1.398-.354 14.062 14.062 0 0 0-1.438-.207 14.176 14.176 0 0 0-1.447-.074v29.534c.482 0 .964-.02 1.447-.069.482-.049.965-.128 1.438-.217.473-.098.945-.217 1.398-.354.463-.138.926-.305 1.37-.492.442-.187.876-.394 1.299-.62a16.08 16.08 0 0 0 1.251-.738c.393-.266.788-.551 1.162-.857.374-.305.738-.64 1.083-.975.336-.345.661-.709.975-1.083.295-.374.592-.768.857-1.162.267-.404.513-.817.738-1.25.226-.423.433-.857.62-1.3.187-.443.346-.906.492-1.369.139-.453.256-.926.354-1.398.089-.473.167-.955.217-1.428.049-.482.069-.975.069-1.457a14.8 14.8 0 0 0-.069-1.457c-.05-.474-.129-.956-.217-1.429z" fill="#21323a"/></svg>